<svg id="Layer_1" data-name="Layer 1" xmlns="http://www.w3.org/2000/svg" viewBox="0 0 228 223.34"><defs><style>.cls-1{fill:#fffdfd;}.cls-2{fill:#fff;}</style></defs><title>prize-3</title><path class="cls-1" d="M47.4,38.41,43.34,41,55.22,59.48l-5,3.2L38.37,44.23l-4,2.6L32,43.18l13.06-8.42Z" transform="translate(-11 -13.33)"/><path class="cls-1" d="M64.13,25.15,75.61,48.8l-5.25,2.55L65.63,41.6l-4.76,2.32,4.73,9.74L60.36,56.2,48.88,32.55,54.12,30,59,40l4.76-2.31-4.86-10Z" transform="translate(-11 -13.33)"/><path class="cls-1" d="M75.19,21.12l8.94,24.73-5.53,2L69.67,23.11Z" transform="translate(-11 -13.33)"/><path class="cls-1" d="M91.41,33.49l-1,.24,2.33,9.56L87,44.68,80.81,19.14l10.52-2.57c3.65-.89,5.47.46,6.14,3.19l1.74,7.15c.54,2.2,0,4-2.17,5l6.87,8.62-6.15,1.5Zm-2-3.81,3.09-.76c.77-.18,1-.49.81-1.22L91.92,22c-.18-.72-.53-.93-1.29-.75L87.54,22Z" transform="translate(-11 -13.33)"/><path class="cls-1" d="M113.93,13.37c3.75-.31,5.38,1.29,5.61,4.09L121,34.55c.23,2.85-1.11,4.7-4.85,5l-10.92.91L103,14.28Zm-.23,5.12c-.07-.74-.42-1-1.2-.94l-3.26.27,1.52,18.12,3.25-.27c.78-.06,1.09-.38,1-1.12Z" transform="translate(-11 -13.33)"/><path class="cls-1" d="M145.2,14.93c3.72.53,4.91,2.45,4.52,5.23l-1.1,7.9c-.4,2.83-2.07,4.34-5.8,3.82l-4.91-.69-1.28,9.09-5.81-.81,3.65-26Zm-1.45,5.23c.11-.74-.14-1.07-.92-1.17l-3.15-.45-1.17,8.36,3.15.44c.78.11,1.11-.14,1.21-.88Z" transform="translate(-11 -13.33)"/><path class="cls-1" d="M157.88,34.72l-1-.3L154,43.84l-5.62-1.7L156,17l10.36,3.14c3.6,1.09,4.49,3.17,3.67,5.86L167.94,33c-.66,2.17-2,3.4-4.44,3.23L165,47.17,159,45.34Zm.22-4.29,3,.92c.76.23,1.11.07,1.32-.64l1.71-5.66c.22-.71,0-1.07-.73-1.3l-3-.92Z" transform="translate(-11 -13.33)"/><path class="cls-1" d="M182,26.15,171.64,50.32,166.25,48l10.34-24.17Z" transform="translate(-11 -13.33)"/><path class="cls-1" d="M197.64,39.1,181,50.11l8,4.35L187,58.27,173.56,51l2.07-3.82,16.64-11L184.45,32l2.07-3.81,13.19,7.15Z" transform="translate(-11 -13.33)"/><path class="cls-1" d="M203,64l-2.46,3.58L188.7,59.42l14.87-21.68,11.56,7.93-2.46,3.58L206,44.67,202.37,50l5.69,3.9-2.46,3.58-5.69-3.9L196,59.18Z" transform="translate(-11 -13.33)"/><path class="cls-2" d="M64.38,212.44c-.91-.95-1.67-1.73-2.21-2.28a8.65,8.65,0,0,1-.75-.94c2.51-2.06,9.33-9.18,10.62-17.63a31,31,0,0,0-1.43-13.65,25.91,25.91,0,0,0-1-2.48c-.26-.77-.5-1.46-.7-2a18,18,0,0,0-.76-1.79,33.71,33.71,0,0,0-6.43,3.59,26.52,26.52,0,0,0-5.16,4.7,15.51,15.51,0,0,0-3.49,6.93,23.93,23.93,0,0,0,1.46,13.27A12.75,12.75,0,0,1,53,197.84l-3.06-5.21-3.06-5.21c-.75-1.47-1.14-2.5-1.14-2.5,2.74-1.33,10.15-6,13-13.16a29.87,29.87,0,0,0,1.5-12.63c-.17-1.81-.62-3.31-.79-4.43a18.21,18.21,0,0,0-.3-1.8,30.46,30.46,0,0,0-6.38,1.94,23.93,23.93,0,0,0-5.5,3.19,15.24,15.24,0,0,0-4.3,5.43A22.25,22.25,0,0,0,41.35,175c-.17.07-1.38-4.33-2.74-8.67-.66-2.18-1.37-4.34-1.8-6s-.51-2.8-.51-2.8c2.76-.61,10-3.07,13.91-8.75a21.76,21.76,0,0,0,2.53-5.55,24.94,24.94,0,0,0,1.3-5.44,25.83,25.83,0,0,0,.09-5.82,25.7,25.7,0,0,0-5.89.51,16.62,16.62,0,0,0-10.1,5.75,18.77,18.77,0,0,0-3.64,9.28,15,15,0,0,1-.32-2.92c-.11-1.77-.25-4.12-.39-6.47s-.28-4.7-.38-6.46c.08-1.77.12-3,.12-3,2.59,0,9.17-.64,13.57-4.76a16.66,16.66,0,0,0,3.25-4.39,22.31,22.31,0,0,0,2.17-4.52,23.67,23.67,0,0,0,1.21-5.12,23,23,0,0,0-5.18-.62,14.91,14.91,0,0,0-9.8,3.12A16.34,16.34,0,0,0,34,119.28a9.24,9.24,0,0,1,.1-1.32c.12-.78.29-1.83.46-2.88.32-2.08.66-4.17.66-4.17a35,35,0,0,0,4.41-5,20.18,20.18,0,0,0,4.27-7.69,28.43,28.43,0,0,0,.36-11.43,33.86,33.86,0,0,0-1.45-5.67A24.15,24.15,0,0,0,38,84.3c-2.53,2.2-6.07,5.49-7.1,10.11A22.66,22.66,0,0,0,30.5,104,27.6,27.6,0,0,0,33,110.53s-.74,4.13-1.23,8.29l-.44,8.37a21.67,21.67,0,0,0-3.27-8,18,18,0,0,0-8.43-6.6,19,19,0,0,0-5.09-1.27s-.12.77-.31,2a20.22,20.22,0,0,0-.15,5.08c.3,4,1.26,9,3.75,12.55,4.4,5.53,11,5.81,13.59,5.79l.58,9.58c.83,4.72,1.67,9.44,1.67,9.44a25.74,25.74,0,0,0-5.94-8.56,19.4,19.4,0,0,0-10.81-5.39,21.28,21.28,0,0,0-5.94-.22,38.3,38.3,0,0,0,1.08,8.16c1.39,4.5,3.75,9.88,7.44,13.19,6.19,5.22,13.92,3.56,16.58,2.89l2.72,8.87c1.84,4.25,3.69,8.5,3.69,8.5a35.79,35.79,0,0,0-8.87-8.4,22.51,22.51,0,0,0-13.24-3.36,23.68,23.68,0,0,0-6.57,1.16,56.83,56.83,0,0,0,3.28,8.84c2.42,4.75,6.66,10.06,11.5,12.78,8.3,4.2,16.32.17,18.93-1.22,0,0,2.23,3.89,4.61,7.68l5.42,7.15a43.91,43.91,0,0,0-12.08-7.25,25.61,25.61,0,0,0-15.24-.43A25.62,25.62,0,0,0,23.4,203a66.8,66.8,0,0,0,5.9,8.88c3.72,4.72,9.89,9.39,15.8,11.15,10.4,2.36,17.8-4.27,20.15-6.43l2.23,2.29,2.26,2.36,2.9,2.38,7.93,6.45,1.31-1.85-10.82-8.88C68.62,216.85,66.2,214.33,64.38,212.44Z" transform="translate(-11 -13.33)"/><path class="cls-2" d="M211.17,173.08c.51-1.67,1.19-3.88,1.86-6.1s1.4-4.42,1.83-6.1.52-2.85.52-2.85c2.77.5,10.3,1.59,16.21-4a19.42,19.42,0,0,0,4.42-6.39,40.65,40.65,0,0,0,2.06-7.22,50.85,50.85,0,0,0,.93-8.2,21.61,21.61,0,0,0-6,.59,20.86,20.86,0,0,0-10.79,6.07c-2.47,2.62-3.78,5.9-5,8.95a15.58,15.58,0,0,0,.32-3c.11-1.79.26-4.19.4-6.58s.28-4.79.38-6.58c-.07-1.8-.12-3-.12-3,2.57-.15,9.08-.84,13-6.64a18.75,18.75,0,0,0,2.6-6.26,36.62,36.62,0,0,0,.41-6.51,44.67,44.67,0,0,0-.75-7.13,19.4,19.4,0,0,0-5,1.6,18.22,18.22,0,0,0-8.16,7.18,23.89,23.89,0,0,0-2.55,8.13,10.81,10.81,0,0,0-.11-1.33c-.12-.81-.29-1.87-.46-2.93l-.68-4.26A26.82,26.82,0,0,0,219,104a22.33,22.33,0,0,0-.38-9.55c-1-4.62-4.57-7.91-7.1-10.11a24.15,24.15,0,0,0-4.86-3.15,35.66,35.66,0,0,0-1.46,5.67,28.64,28.64,0,0,0,.38,11.43,20,20,0,0,0,4.26,7.69,34.94,34.94,0,0,0,4.42,5s.73,4,1.21,8.13c.22,4.11.43,8.22.43,8.22a17.8,17.8,0,0,0-4.07-7.14c-2.8-2.78-6.82-3.56-9.75-3.73a23.15,23.15,0,0,0-5.24.29,14.4,14.4,0,0,0,.24,1.49c.21.93.55,2.2.83,3.67a18.79,18.79,0,0,0,4.89,9.27c4,4.38,10.4,5.46,13,5.61,0,0-.28,4.69-.56,9.4-.82,4.64-1.65,9.28-1.65,9.28a20.27,20.27,0,0,0-2.7-9.45,17.89,17.89,0,0,0-10.06-6.41,26.81,26.81,0,0,0-5.88-.9,38.22,38.22,0,0,0,.08,5.85,20.56,20.56,0,0,0,3,11.21c3.57,5.91,10.38,8.77,13.16,9.58L208.52,174c-1.81,4.17-3.63,8.34-3.63,8.34.61-3.76,1.1-7.81-.59-11.54a19.42,19.42,0,0,0-9.37-9.31,30.25,30.25,0,0,0-6.21-2.34,25.9,25.9,0,0,0-1.33,6.2c-.56,3.57-1.1,8,.64,12.69,2.39,7.33,9.19,12.36,11.92,13.91,0,0-2.18,3.83-4.51,7.54l-5.32,7c1.71-4,3.49-8.37,2.43-13.07-1-5.6-4.58-9.54-7.81-12.18a33.93,33.93,0,0,0-6.15-4,26.77,26.77,0,0,0-2.91,6.11c-.52,2-1.47,3.84-1.93,6.13a22,22,0,0,0-.35,7.45c.62,8.38,6.79,15.85,9.18,18.11l-2.17,2.25-2.22,2.31c-.92.75-1.89,1.54-2.84,2.34l-7.77,6.31,1.32,1.85s5.59-4.47,11-9.07l6.81-7.06,2.26-2.33a11.26,11.26,0,0,0,.77-1c2.54,2,10.23,8,20.32,4.84,6.37-1.77,11.35-7.33,15.06-12.12.91-1.2,1.73-2.36,2.46-3.43s1.12-2.14,1.53-3c.84-1.72,1.26-2.8,1.26-2.8a25.55,25.55,0,0,0-7-2.33,26.53,26.53,0,0,0-7-.42,30,30,0,0,0-8.1,1.88c-4.65,1.8-8.28,5.11-11.48,8.1a12.89,12.89,0,0,0,1.56-2.32c.85-1.45,2-3.38,3.12-5.31s2.27-3.87,3.12-5.31,1.17-2.55,1.17-2.55c2.78,1.25,10.77,4.62,18.82-.12,5.2-2.84,8.38-8.63,10.6-13.5a41.9,41.9,0,0,0,2.34-6.3c.37-1.65.52-2.67.52-2.67a24.89,24.89,0,0,0-12.85.26,22.34,22.34,0,0,0-6.91,3.19c-3.52,2.4-6,5.84-8.08,9l.32-.72C210.71,174.6,210.92,173.91,211.17,173.08Z" transform="translate(-11 -13.33)"/><path class="cls-2" d="M152.44,226.27H95.12a5.46,5.46,0,0,0-5.46,5.46v4.94H157.9v-4.94A5.45,5.45,0,0,0,152.44,226.27Z" transform="translate(-11 -13.33)"/><rect class="cls-2" x="84.12" y="187.13" width="57.32" height="22.67"/><path class="cls-2" d="M152.44,186.41H95.12a5.46,5.46,0,0,0,0,10.92h57.32a5.46,5.46,0,0,0,0-10.92Z" transform="translate(-11 -13.33)"/><path class="cls-2" d="M168.11,62.11c.08-2.15.13-4.31.13-6.5H79.33c0,2.19,0,4.35.13,6.5H64.56v2.73c0,33.12,13.61,59.07,31,59.15a54.65,54.65,0,0,0,9.87,12.17l.07,1.54a9.25,9.25,0,0,0,7.16,8.58H113v18l-.35,0a9.25,9.25,0,0,0-7.16,8.58l0,1a10.82,10.82,0,0,0-5.5,9.41H147.6a10.86,10.86,0,0,0-5.49-9.42l-.05-1a9.24,9.24,0,0,0-7.15-8.58h-.35v-18h.18l.17,0a9.26,9.26,0,0,0,7.15-8.59l.08-1.54A54.93,54.93,0,0,0,152,124c17.38-.08,31-26,31-59.15V62.11ZM70.06,67.57h9.68c1.33,19.56,5.86,37.1,12.52,50.44C80.33,114.53,70.7,93.09,70.06,67.57ZM138.63,171.4h-29.7a6.11,6.11,0,0,1,4.26-4h21.18A6.11,6.11,0,0,1,138.63,171.4Zm-4.26-28.21H113.19a6.08,6.08,0,0,1-4.26-4h29.7A6.08,6.08,0,0,1,134.37,143.19Zm4.78-58c0,3.43-.76,6-3.43,7.09,2.67,1,3.43,3.2,3.43,6.56v9.69c0,5.26-2.74,8.46-9.68,8.46H121c-6.94,0-9.61-3.2-9.61-8.46v-7.1h10.83v5.65c0,1.37.61,1.9,2.06,1.9h2.06c1.53,0,2.06-.53,2.06-1.9v-9c0-1.45-.53-1.91-2.06-1.91h-6V88.62h6c1.53,0,2.06-.46,2.06-1.83V78.4c0-1.37-.53-1.91-2.06-1.91h-2.06c-1.45,0-2.06.54-2.06,1.91v5.72H111.39V76.88c0-5.19,2.67-8.39,9.61-8.39h8.47c6.94,0,9.68,3.2,9.68,8.39ZM155.31,118c6.66-13.34,11.19-30.88,12.52-50.44h9.68C176.86,93.09,167.24,114.53,155.31,118Z" transform="translate(-11 -13.33)"/></svg>