<svg id="Layer_1" data-name="Layer 1" xmlns="http://www.w3.org/2000/svg" viewBox="0 0 228 224.97"><defs><style>.cls-1{fill:#fffdfd;}.cls-2{fill:#fff;}</style></defs><title>prize-1</title><path class="cls-1" d="M40.48,42.42l4.08,6.4,6.1-3.9L53,48.54l-6.1,3.89,6,9.39-5.23,3.34L32.8,41.92l12.5-8,2.45,3.83Z" transform="translate(-11 -12.51)"/><path class="cls-1" d="M54.73,29.09,67.41,53.56l-5.47,2.83L49.27,31.92Z" transform="translate(-11 -12.51)"/><path class="cls-1" d="M73.29,39.7l-1,.39,3.77,9.6-5.73,2.25L60.26,26.28l10.57-4.14c3.67-1.44,5.75-.3,6.82,2.44l2.82,7.18c.87,2.22.54,4.12-1.55,5.54l8.35,8-6.18,2.42ZM70.69,36l3.1-1.22c.77-.3,1-.65.67-1.38L72.2,27.65c-.29-.73-.68-.9-1.45-.6l-3.1,1.22Z" transform="translate(-11 -12.51)"/><path class="cls-1" d="M95.31,32.58c-.18-.76-.54-.94-1.38-.75l-3.71.87c-3.72.87-5.42-.69-6.09-3.56L82.7,23c-.67-2.87.39-5,4.24-5.89l5.14-1.2c3.84-.9,5.74.53,6.41,3.4l.81,3.5-6,1.41-.62-2.66c-.18-.76-.54-1-1.39-.78l-1.43.33c-.85.2-1.07.56-.9,1.32L90,27.18c.18.76.53.94,1.37.75L95,27.08c3.76-.88,5.47.55,6.14,3.42l1.48,6.33c.68,2.91-.38,5-4.22,5.92L93.33,44c-3.84.89-5.77-.52-6.45-3.44l-.81-3.46,6-1.41.62,2.66c.18.76.55,1,1.39.79l1.44-.33c.84-.2,1.07-.57.89-1.33Z" transform="translate(-11 -12.51)"/><path class="cls-1" d="M118.65,17.05l-5.05.44,2,22.92-6.17.54-2-22.92-5,.44L102,13.94l16.23-1.43Z" transform="translate(-11 -12.51)"/><path class="cls-1" d="M143.87,14.25c3.91.51,5.19,2.5,4.81,5.43L147.62,28c-.38,3-2.12,4.58-6,4.08l-5.16-.66-1.22,9.54-6.1-.78,3.5-27.34Zm-1.44,5.5c.09-.78-.17-1.11-1-1.22l-3.31-.42L137,26.87l3.31.43c.82.1,1.16-.16,1.26-.93Z" transform="translate(-11 -12.51)"/><path class="cls-1" d="M157.47,34.93l-1-.31-3,9.88-5.89-1.76,7.88-26.41,10.88,3.25c3.77,1.13,4.71,3.3,3.86,6.13L168,33.1c-.68,2.28-2.11,3.57-4.64,3.41L165,47.94l-6.36-1.89Zm.21-4.51,3.2,1c.79.23,1.15.07,1.38-.68L164,24.77c.22-.75,0-1.13-.77-1.36l-3.2-1Z" transform="translate(-11 -12.51)"/><path class="cls-1" d="M182.77,25.92,171.9,51.25l-5.65-2.43,10.87-25.33Z" transform="translate(-11 -12.51)"/><path class="cls-1" d="M199.22,39.62l-17.5,11.45,8.39,4.61-2.19,4-14-7.69,2.19-4,17.5-11.45-8.16-4.48,2.19-4,13.79,7.57Z" transform="translate(-11 -12.51)"/><path class="cls-1" d="M204.64,65.75,202,69.48l-12.33-8.62,15.8-22.58,12,8.42-2.61,3.73-7-4.87-3.85,5.5,5.93,4.15-2.61,3.73-5.93-4.15-4.12,5.9Z" transform="translate(-11 -12.51)"/><path class="cls-2" d="M64.38,213.26c-.91-.95-1.67-1.73-2.21-2.28a8.06,8.06,0,0,1-.75-.95c2.51-2.05,9.33-9.18,10.62-17.62a31.1,31.1,0,0,0-1.43-13.66,25.68,25.68,0,0,0-1-2.47c-.26-.77-.5-1.46-.7-2a16.72,16.72,0,0,0-.76-1.79A34,34,0,0,0,61.7,176a26.84,26.84,0,0,0-5.16,4.7,15.54,15.54,0,0,0-3.49,6.94,23.88,23.88,0,0,0,1.46,13.26A12.86,12.86,0,0,1,53,198.66l-3.06-5.22c-1.12-1.89-2.23-3.79-3.06-5.21a26.93,26.93,0,0,1-1.14-2.49c2.74-1.33,10.15-6,13-13.16a29.9,29.9,0,0,0,1.5-12.64c-.17-1.8-.62-3.3-.79-4.42a18.21,18.21,0,0,0-.3-1.8,30.46,30.46,0,0,0-6.38,1.94,24.24,24.24,0,0,0-5.5,3.18,15.28,15.28,0,0,0-4.3,5.44,22.25,22.25,0,0,0-1.58,11.55c-.17.06-1.38-4.33-2.74-8.68-.66-2.17-1.37-4.33-1.8-6s-.51-2.79-.51-2.79c2.76-.61,10-3.08,13.91-8.75a21.82,21.82,0,0,0,2.53-5.56,24.73,24.73,0,0,0,1.3-5.43,25.93,25.93,0,0,0,.09-5.83,26.09,26.09,0,0,0-5.89.52,16.58,16.58,0,0,0-10.1,5.75,18.77,18.77,0,0,0-3.64,9.28,15.07,15.07,0,0,1-.32-2.93c-.11-1.76-.25-4.11-.39-6.46s-.28-4.7-.38-6.47c.08-1.76.12-2.94.12-2.94,2.59,0,9.17-.64,13.57-4.76a16.66,16.66,0,0,0,3.25-4.39,22.56,22.56,0,0,0,2.17-4.52,23.67,23.67,0,0,0,1.21-5.12,22.61,22.61,0,0,0-5.18-.63,15,15,0,0,0-9.8,3.12A16.44,16.44,0,0,0,34,120.1a9.24,9.24,0,0,1,.1-1.32c.12-.79.29-1.83.46-2.88.32-2.09.66-4.18.66-4.18a34.8,34.8,0,0,0,4.41-5,20.26,20.26,0,0,0,4.27-7.69,28.43,28.43,0,0,0,.36-11.43A33.86,33.86,0,0,0,42.85,82,24.15,24.15,0,0,0,38,85.12c-2.53,2.2-6.07,5.49-7.1,10.11a22.66,22.66,0,0,0-.39,9.55A27.6,27.6,0,0,0,33,111.35s-.74,4.13-1.23,8.28L31.35,128a21.7,21.7,0,0,0-3.27-8,18.1,18.1,0,0,0-8.43-6.61,19.18,19.18,0,0,0-5.09-1.26s-.12.77-.31,2a20.33,20.33,0,0,0-.15,5.09c.3,4,1.26,9,3.75,12.54,4.4,5.54,11,5.81,13.59,5.8l.58,9.58c.83,4.72,1.67,9.44,1.67,9.44a25.78,25.78,0,0,0-5.94-8.57,19.44,19.44,0,0,0-10.81-5.38,21.28,21.28,0,0,0-5.94-.22,38.37,38.37,0,0,0,1.08,8.16c1.39,4.5,3.75,9.88,7.44,13.18,6.19,5.22,13.92,3.57,16.58,2.9l2.72,8.87c1.84,4.25,3.69,8.5,3.69,8.5a36,36,0,0,0-8.87-8.41,22.57,22.57,0,0,0-13.24-3.35,23.68,23.68,0,0,0-6.57,1.16,56.83,56.83,0,0,0,3.28,8.84c2.42,4.75,6.66,10,11.5,12.78,8.3,4.2,16.32.17,18.93-1.23,0,0,2.23,3.9,4.61,7.69l5.42,7.14a44.13,44.13,0,0,0-12.08-7.24A25.7,25.7,0,0,0,30.25,201a25.82,25.82,0,0,0-6.85,2.81,67.56,67.56,0,0,0,5.9,8.88c3.72,4.71,9.89,9.39,15.8,11.15,10.4,2.35,17.8-4.27,20.15-6.44l2.23,2.3,2.26,2.35,2.9,2.39,7.93,6.45,1.31-1.85-10.82-8.88C68.62,217.67,66.2,215.15,64.38,213.26Z" transform="translate(-11 -12.51)"/><path class="cls-2" d="M211.17,173.89c.51-1.66,1.19-3.87,1.86-6.09s1.4-4.42,1.83-6.11.52-2.85.52-2.85c2.77.51,10.3,1.6,16.21-4a19.28,19.28,0,0,0,4.42-6.38,40.89,40.89,0,0,0,2.06-7.22A50.85,50.85,0,0,0,239,133a21.61,21.61,0,0,0-6,.59,20.83,20.83,0,0,0-10.79,6.06c-2.47,2.62-3.78,5.91-5,9a15.73,15.73,0,0,0,.32-3c.11-1.79.26-4.19.4-6.58s.28-4.79.38-6.59c-.07-1.79-.12-3-.12-3,2.57-.15,9.08-.84,13-6.64a18.75,18.75,0,0,0,2.6-6.26,36.67,36.67,0,0,0,.41-6.51,44.67,44.67,0,0,0-.75-7.13,19.4,19.4,0,0,0-5,1.6,18.1,18.1,0,0,0-8.16,7.18,23.82,23.82,0,0,0-2.55,8.13,11,11,0,0,0-.11-1.34c-.12-.8-.29-1.86-.46-2.92l-.68-4.26a26.82,26.82,0,0,0,2.51-6.57,22.33,22.33,0,0,0-.38-9.55c-1-4.62-4.57-7.91-7.1-10.11A24.15,24.15,0,0,0,206.61,82a35.66,35.66,0,0,0-1.46,5.67,28.64,28.64,0,0,0,.38,11.43,20.1,20.1,0,0,0,4.26,7.69,34.77,34.77,0,0,0,4.42,5s.73,4.06,1.21,8.14c.22,4.11.43,8.22.43,8.22a17.83,17.83,0,0,0-4.07-7.15c-2.8-2.78-6.82-3.55-9.75-3.73a23.47,23.47,0,0,0-5.24.3A14.4,14.4,0,0,0,197,119c.21.92.55,2.2.83,3.67a18.72,18.72,0,0,0,4.89,9.26c4,4.39,10.4,5.46,13,5.61l-.56,9.41c-.82,4.64-1.65,9.28-1.65,9.28a20.23,20.23,0,0,0-2.7-9.45,17.91,17.91,0,0,0-10.06-6.42,26.39,26.39,0,0,0-5.88-.89,38.22,38.22,0,0,0,.08,5.85,20.51,20.51,0,0,0,3,11.2c3.57,5.92,10.38,8.78,13.16,9.59l-2.66,8.7c-1.81,4.17-3.63,8.34-3.63,8.34.61-3.75,1.1-7.8-.59-11.53a19.33,19.33,0,0,0-9.37-9.31,30.25,30.25,0,0,0-6.21-2.34,25.89,25.89,0,0,0-1.33,6.19c-.56,3.58-1.1,8.06.64,12.7,2.39,7.33,9.19,12.36,11.92,13.91,0,0-2.18,3.82-4.51,7.54l-5.32,7c1.71-4,3.49-8.38,2.43-13.07-1-5.6-4.58-9.55-7.81-12.18a33.93,33.93,0,0,0-6.15-4,26.77,26.77,0,0,0-2.91,6.11c-.52,1.94-1.47,3.84-1.93,6.13a21.93,21.93,0,0,0-.35,7.44c.62,8.39,6.79,15.86,9.18,18.12l-2.17,2.25-2.22,2.31c-.92.74-1.89,1.54-2.84,2.34l-7.77,6.31,1.32,1.85s5.59-4.47,11-9.07l6.81-7.06,2.26-2.34a10.44,10.44,0,0,0,.77-.95c2.54,2,10.23,8,20.32,4.84,6.37-1.78,11.35-7.33,15.06-12.12.91-1.21,1.73-2.37,2.46-3.44s1.12-2.14,1.53-3c.84-1.72,1.26-2.81,1.26-2.81a25.76,25.76,0,0,0-7-2.32,26.94,26.94,0,0,0-7-.43,30.08,30.08,0,0,0-8.1,1.89c-4.65,1.8-8.28,5.11-11.48,8.1a12.77,12.77,0,0,0,1.56-2.33l3.12-5.3,3.12-5.32c.75-1.5,1.17-2.54,1.17-2.54,2.78,1.25,10.77,4.62,18.82-.12,5.2-2.84,8.38-8.63,10.6-13.5a42.72,42.72,0,0,0,2.34-6.3c.37-1.65.52-2.68.52-2.68a23.38,23.38,0,0,0-6.6-.71,24.24,24.24,0,0,0-6.25,1,22.82,22.82,0,0,0-6.91,3.19c-3.52,2.41-6,5.85-8.08,9l.32-.72C210.71,175.42,210.92,174.72,211.17,173.89Z" transform="translate(-11 -12.51)"/><path class="cls-2" d="M152.44,227.08H95.12a5.47,5.47,0,0,0-5.46,5.46v5H157.9v-5A5.46,5.46,0,0,0,152.44,227.08Z" transform="translate(-11 -12.51)"/><rect class="cls-2" x="84.12" y="188.77" width="57.32" height="22.67"/><path class="cls-2" d="M152.44,187.23H95.12a5.46,5.46,0,0,0,0,10.92h57.32a5.46,5.46,0,0,0,0-10.92Z" transform="translate(-11 -12.51)"/><path class="cls-2" d="M168.11,62.93c.08-2.15.13-4.31.13-6.5H79.33c0,2.19,0,4.35.13,6.5H64.56v2.73c0,33.12,13.61,59.07,31,59.15A54.65,54.65,0,0,0,105.43,137l.07,1.54a9.25,9.25,0,0,0,7.16,8.58H113v18l-.35,0a9.25,9.25,0,0,0-7.16,8.58l0,1a10.82,10.82,0,0,0-5.5,9.41H147.6a10.86,10.86,0,0,0-5.49-9.42l-.05-1a9.24,9.24,0,0,0-7.15-8.58h-.35v-18h.18l.17,0a9.26,9.26,0,0,0,7.15-8.59l.08-1.54A54.93,54.93,0,0,0,152,124.81c17.38-.08,31-26,31-59.15V62.93ZM70.06,68.39h9.68c1.33,19.56,5.86,37.1,12.52,50.44C80.33,115.35,70.7,93.91,70.06,68.39Zm42.72.92H130v48.5H119.11V77.31h-6.33Zm25.85,102.91h-29.7a6.11,6.11,0,0,1,4.26-4h21.18A6.11,6.11,0,0,1,138.63,172.22ZM134.37,144H113.19a6.08,6.08,0,0,1-4.26-4h29.7A6.08,6.08,0,0,1,134.37,144Zm20.94-25.18C162,105.49,166.5,88,167.83,68.39h9.68C176.86,93.91,167.24,115.35,155.31,118.83Z" transform="translate(-11 -12.51)"/></svg>