<svg id="Layer_1" data-name="Layer 1" xmlns="http://www.w3.org/2000/svg" viewBox="0 0 228 219.85"><defs><style>.cls-1{fill:#fffdfd;}.cls-2{fill:#fff;}</style></defs><title>prize-2</title><path class="cls-1" d="M49.29,51.26c-.35-.54-.67-.58-1.27-.2l-2.61,1.69c-2.61,1.69-4.34,1-5.64-1.06L37,47.38c-1.31-2-1.07-3.93,1.63-5.68l3.62-2.33c2.7-1.75,4.54-1.17,5.85.85l1.59,2.46-4.25,2.74-1.2-1.87c-.35-.53-.69-.61-1.29-.22l-1,.65c-.6.38-.67.72-.33,1.26l2.15,3.32c.34.54.67.58,1.26.2l2.55-1.65c2.64-1.71,4.35-1.08,5.65.93l2.88,4.45c1.32,2,1.09,4-1.61,5.71L50.9,60.52c-2.71,1.75-4.58,1.19-5.9-.86l-1.57-2.43,4.24-2.74,1.21,1.87c.34.53.69.61,1.28.22l1-.65c.59-.38.67-.72.32-1.26Z" transform="translate(-11 -15.08)"/><path class="cls-1" d="M69.37,45.84l1.69,3.3L60.15,54.73l-10.26-20,10.66-5.47,1.69,3.31-6.16,3.16,2.5,4.87,5.25-2.69,1.7,3.3-5.25,2.69L63,49.13Z" transform="translate(-11 -15.08)"/><path class="cls-1" d="M74.9,31.91l-1.27-3.29c-.23-.59-.55-.73-1.18-.49l-1.35.52c-.66.26-.8.58-.57,1.17l5,12.85c.24.62.55.73,1.21.48l1.35-.53c.63-.24.78-.53.54-1.15l-1.24-3.2,4.74-1.84,1.41,3.63c.87,2.24.22,4.08-2.78,5.24l-4.22,1.64c-3,1.16-4.69.22-5.55-2l-5.32-13.7C64.78,29,65.4,27.15,68.4,26l4.21-1.64c3-1.16,4.73-.24,5.59,2l1.45,3.73Z" transform="translate(-11 -15.08)"/><path class="cls-1" d="M90,19.07c3.11-.79,4.68.34,5.27,2.66L98.9,35.94c.6,2.36-.23,4.1-3.34,4.9L91,42c-3.11.8-4.71-.32-5.32-2.68L82,25.12c-.6-2.32.27-4.08,3.38-4.87Zm.55,4.6c-.16-.61-.46-.79-1.11-.63l-1.64.42c-.68.18-.86.48-.7,1.1l3.29,12.87c.16.61.46.79,1.14.61l1.65-.42c.65-.16.82-.46.67-1.08Z" transform="translate(-11 -15.08)"/><path class="cls-1" d="M113.41,15.32l2.64,22.32-4.49.54-6.46-12.8,1.58,13.37-4.56.54L99.48,17l4.53-.53,6.38,12.76-1.57-13.33Z" transform="translate(-11 -15.08)"/><path class="cls-1" d="M128.54,15.31c3.22.08,4.46,1.59,4.4,4L132.58,34c-.07,2.44-1.37,3.89-4.59,3.81l-9.36-.23.55-22.46Zm-.67,4.33c0-.64-.26-.89-.93-.91l-2.79-.07-.38,15.54,2.79.07c.67,0,1-.22,1-.86Z" transform="translate(-11 -15.08)"/><path class="cls-1" d="M154.54,19c3.14.69,4,2.4,3.51,4.75l-1.46,6.66c-.52,2.38-2.05,3.57-5.19,2.88l-4.14-.91L145.58,40,140.68,39l4.81-22ZM153,23.34c.14-.62-.05-.92-.7-1.06l-2.66-.59-1.55,7,2.66.58c.66.14.95-.05,1.09-.67Z" transform="translate(-11 -15.08)"/><path class="cls-1" d="M164.08,36.49l-.83-.3L160.4,44.1l-4.72-1.7,7.62-21.13L172,24.4c3,1.09,3.68,2.91,2.87,5.17l-2.13,5.91a3.41,3.41,0,0,1-3.93,2.57l.82,9.38-5.08-1.83Zm.38-3.65,2.56.92c.63.23.94.11,1.15-.49l1.72-4.75c.21-.6.06-.91-.57-1.14l-2.56-.92Z" transform="translate(-11 -15.08)"/><path class="cls-1" d="M184.82,30l-9.53,20.36-4.54-2.13,9.53-20.35Z" transform="translate(-11 -15.08)"/><path class="cls-1" d="M197.74,41.2l-14.39,9.15,6.79,3.84-1.83,3.23L177,51l1.83-3.23,14.39-9.15-6.61-3.74,1.83-3.23L199.57,38Z" transform="translate(-11 -15.08)"/><path class="cls-1" d="M202.06,62.36l-2.11,3-10.09-7L202.63,40l9.86,6.81-2.11,3.05-5.7-3.94-3.12,4.51,4.86,3.36-2.11,3-4.85-3.35-3.34,4.82Z" transform="translate(-11 -15.08)"/><path class="cls-2" d="M64.38,210.7l-2.21-2.29a8.65,8.65,0,0,1-.75-.94c2.51-2.05,9.33-9.18,10.62-17.62a31.07,31.07,0,0,0-1.43-13.66,25.68,25.68,0,0,0-1-2.47c-.26-.78-.5-1.47-.7-2a16.72,16.72,0,0,0-.76-1.79,34,34,0,0,0-6.43,3.58,26.52,26.52,0,0,0-5.16,4.7,15.51,15.51,0,0,0-3.49,6.93,23.91,23.91,0,0,0,1.46,13.27A12.86,12.86,0,0,1,53,196.1c-.83-1.43-1.95-3.32-3.06-5.22s-2.23-3.79-3.06-5.21-1.14-2.49-1.14-2.49c2.74-1.33,10.15-6,13-13.17a29.85,29.85,0,0,0,1.5-12.63c-.17-1.81-.62-3.3-.79-4.42a18.21,18.21,0,0,0-.3-1.8,30,30,0,0,0-6.38,1.93,24.3,24.3,0,0,0-5.5,3.19,15.33,15.33,0,0,0-4.3,5.43,22.29,22.29,0,0,0-1.58,11.56c-.17.06-1.38-4.34-2.74-8.68-.66-2.18-1.37-4.34-1.8-6s-.51-2.8-.51-2.8c2.76-.6,10-3.07,13.91-8.74a22,22,0,0,0,2.53-5.56,24.86,24.86,0,0,0,1.3-5.43,25.91,25.91,0,0,0,.09-5.83,26.4,26.4,0,0,0-5.89.51,16.67,16.67,0,0,0-10.1,5.75,18.77,18.77,0,0,0-3.64,9.28,15,15,0,0,1-.32-2.92c-.11-1.76-.25-4.12-.39-6.47s-.28-4.7-.38-6.46c.08-1.77.12-3,.12-3,2.59,0,9.17-.63,13.57-4.76a16.5,16.5,0,0,0,3.25-4.39,22.31,22.31,0,0,0,2.17-4.52,23.52,23.52,0,0,0,1.21-5.11,22.61,22.61,0,0,0-5.18-.63,14.91,14.91,0,0,0-9.8,3.12A16.41,16.41,0,0,0,34,117.53a9.32,9.32,0,0,1,.1-1.32c.12-.78.29-1.83.46-2.87.32-2.09.66-4.18.66-4.18a35.37,35.37,0,0,0,4.41-5,20.22,20.22,0,0,0,4.27-7.7,28.38,28.38,0,0,0,.36-11.42,33.82,33.82,0,0,0-1.45-5.68A24,24,0,0,0,38,82.56c-2.53,2.19-6.07,5.49-7.1,10.1a22.71,22.71,0,0,0-.39,9.56A27.78,27.78,0,0,0,33,108.79s-.74,4.13-1.23,8.28l-.44,8.37a21.63,21.63,0,0,0-3.27-8,18.1,18.1,0,0,0-8.43-6.61,19.18,19.18,0,0,0-5.09-1.26s-.12.77-.31,2a20.28,20.28,0,0,0-.15,5.09c.3,4,1.26,9,3.75,12.54,4.4,5.54,11,5.81,13.59,5.79l.58,9.58c.83,4.73,1.67,9.45,1.67,9.45a25.68,25.68,0,0,0-5.94-8.57,19.46,19.46,0,0,0-10.81-5.39,21.28,21.28,0,0,0-5.94-.22,38.3,38.3,0,0,0,1.08,8.16c1.39,4.5,3.75,9.89,7.44,13.19,6.19,5.22,13.92,3.57,16.58,2.9L38.82,173c1.84,4.25,3.69,8.5,3.69,8.5a36,36,0,0,0-8.87-8.4,22.57,22.57,0,0,0-13.24-3.35,23.68,23.68,0,0,0-6.57,1.16,57,57,0,0,0,3.28,8.83c2.42,4.75,6.66,10.06,11.5,12.78,8.3,4.21,16.32.18,18.93-1.22,0,0,2.23,3.9,4.61,7.69l5.42,7.14a43.88,43.88,0,0,0-12.08-7.24,25.62,25.62,0,0,0-15.24-.44,26,26,0,0,0-6.85,2.8,66.8,66.8,0,0,0,5.9,8.88c3.72,4.72,9.89,9.39,15.8,11.15,10.4,2.36,17.8-4.27,20.15-6.43l2.23,2.3,2.26,2.35,2.9,2.39,7.93,6.44,1.31-1.84-10.82-8.88C68.62,215.11,66.2,212.58,64.38,210.7Z" transform="translate(-11 -15.08)"/><path class="cls-2" d="M211.17,171.33c.51-1.66,1.19-3.88,1.86-6.09s1.4-4.43,1.83-6.11.52-2.85.52-2.85c2.77.51,10.3,1.6,16.21-4a19.28,19.28,0,0,0,4.42-6.38,40.75,40.75,0,0,0,2.06-7.23,50.85,50.85,0,0,0,.93-8.2,21.89,21.89,0,0,0-6,.6,20.83,20.83,0,0,0-10.79,6.06c-2.47,2.62-3.78,5.9-5,8.95a15.53,15.53,0,0,0,.32-3c.11-1.8.26-4.19.4-6.59s.28-4.79.38-6.58c-.07-1.8-.12-3-.12-3,2.57-.15,9.08-.85,13-6.65a18.78,18.78,0,0,0,2.6-6.25,36.78,36.78,0,0,0,.41-6.52,44.63,44.63,0,0,0-.75-7.12,19.4,19.4,0,0,0-5,1.6,18.13,18.13,0,0,0-8.16,7.17,23.87,23.87,0,0,0-2.55,8.14,10.89,10.89,0,0,0-.11-1.34c-.12-.8-.29-1.86-.46-2.93l-.68-4.25a27,27,0,0,0,2.51-6.57,22.38,22.38,0,0,0-.38-9.56c-1-4.61-4.57-7.91-7.1-10.1a24,24,0,0,0-4.86-3.16,35.61,35.61,0,0,0-1.46,5.68,28.59,28.59,0,0,0,.38,11.42,20.07,20.07,0,0,0,4.26,7.7,35.33,35.33,0,0,0,4.42,5s.73,4,1.21,8.14c.22,4.11.43,8.22.43,8.22a17.83,17.83,0,0,0-4.07-7.15c-2.8-2.78-6.82-3.56-9.75-3.73a22.77,22.77,0,0,0-5.24.3,14,14,0,0,0,.24,1.48c.21.93.55,2.2.83,3.67a18.75,18.75,0,0,0,4.89,9.27c4,4.39,10.4,5.46,13,5.61l-.56,9.41c-.82,4.63-1.65,9.27-1.65,9.27a20.2,20.2,0,0,0-2.7-9.44,17.85,17.85,0,0,0-10.06-6.42,26.39,26.39,0,0,0-5.88-.89,38.19,38.19,0,0,0,.08,5.85,20.51,20.51,0,0,0,3,11.2c3.57,5.92,10.38,8.78,13.16,9.59l-2.66,8.7c-1.81,4.17-3.63,8.34-3.63,8.34.61-3.75,1.1-7.8-.59-11.54a19.35,19.35,0,0,0-9.37-9.3,29.55,29.55,0,0,0-6.21-2.34,25.89,25.89,0,0,0-1.33,6.19c-.56,3.58-1.1,8,.64,12.69,2.39,7.34,9.19,12.36,11.92,13.91,0,0-2.18,3.83-4.51,7.54l-5.32,7c1.71-4,3.49-8.38,2.43-13.08-1-5.59-4.58-9.54-7.81-12.17a33.28,33.28,0,0,0-6.15-4,26.77,26.77,0,0,0-2.91,6.11c-.52,1.94-1.47,3.84-1.93,6.13a21.93,21.93,0,0,0-.35,7.44c.62,8.39,6.79,15.85,9.18,18.11l-2.17,2.26-2.22,2.31c-.92.74-1.89,1.53-2.84,2.33l-7.77,6.32,1.32,1.84s5.59-4.46,11-9.06l6.81-7.07,2.26-2.33a11.26,11.26,0,0,0,.77-1c2.54,2,10.23,8,20.32,4.85,6.37-1.78,11.35-7.33,15.06-12.12.91-1.21,1.73-2.37,2.46-3.44s1.12-2.14,1.53-3c.84-1.72,1.26-2.8,1.26-2.8a25.76,25.76,0,0,0-7-2.32,26.94,26.94,0,0,0-7-.43,30.42,30.42,0,0,0-8.1,1.88c-4.65,1.8-8.28,5.12-11.48,8.1a12.43,12.43,0,0,0,1.56-2.32c.85-1.45,2-3.38,3.12-5.31s2.27-3.86,3.12-5.31,1.17-2.54,1.17-2.54c2.78,1.24,10.77,4.61,18.82-.13,5.2-2.84,8.38-8.62,10.6-13.5a41.9,41.9,0,0,0,2.34-6.3c.37-1.65.52-2.67.52-2.67a23.38,23.38,0,0,0-6.6-.71,23.82,23.82,0,0,0-6.25,1,22.58,22.58,0,0,0-6.91,3.19c-3.52,2.41-6,5.85-8.08,9l.32-.73C210.71,172.85,210.92,172.16,211.17,171.33Z" transform="translate(-11 -15.08)"/><path class="cls-2" d="M152.44,224.52H95.12A5.46,5.46,0,0,0,89.66,230v4.94H157.9V230A5.45,5.45,0,0,0,152.44,224.52Z" transform="translate(-11 -15.08)"/><rect class="cls-2" x="84.12" y="183.64" width="57.32" height="22.67"/><path class="cls-2" d="M152.44,184.67H95.12a5.46,5.46,0,1,0,0,10.91h57.32a5.46,5.46,0,1,0,0-10.91Z" transform="translate(-11 -15.08)"/><path class="cls-2" d="M168.11,60.37c.08-2.15.13-4.31.13-6.5H79.33c0,2.19,0,4.35.13,6.5H64.56V63.1c0,33.12,13.61,59.07,31,59.15a54.65,54.65,0,0,0,9.87,12.17l.07,1.54a9.25,9.25,0,0,0,7.16,8.58H113v18l-.35,0a9.25,9.25,0,0,0-7.16,8.58l0,1a10.82,10.82,0,0,0-5.5,9.41H147.6a10.86,10.86,0,0,0-5.49-9.42l-.05-1a9.24,9.24,0,0,0-7.15-8.58h-.35v-18h.18l.17,0a9.26,9.26,0,0,0,7.15-8.59l.08-1.54A54.93,54.93,0,0,0,152,122.25c17.38-.08,31-26,31-59.15V60.37ZM70.06,65.83h9.68c1.33,19.56,5.86,37.1,12.52,50.44C80.33,112.79,70.7,91.35,70.06,65.83Zm68.57,103.83h-29.7a6.11,6.11,0,0,1,4.26-4h21.18A6.11,6.11,0,0,1,138.63,169.66Zm-4.26-28.21H113.19a6.08,6.08,0,0,1-4.26-4h29.7A6.08,6.08,0,0,1,134.37,141.45Zm4.55-26.2H111.39v-7.4l13.43-18c2.51-3.21,3.2-5.19,3.2-8.7v-4.5c0-1.37-.54-1.91-2.06-1.91h-1.91c-1.45,0-2,.54-2,1.91v6.41H111.16V75.14c0-5.19,2.67-8.39,9.61-8.39H129c6.94,0,9.76,3.2,9.76,8.39v6.17c0,4.88-1.45,7.86-4.35,11.67l-9.76,14.26h14.26Zm16.39,1c6.66-13.34,11.19-30.88,12.52-50.44h9.68C176.86,91.35,167.24,112.79,155.31,116.27Z" transform="translate(-11 -15.08)"/></svg>