<?xml version="1.0"?>
<svg xmlns="http://www.w3.org/2000/svg" height="512px" viewBox="0 0 469.33333 469.33333" width="512px" class=""><g><path d="m304 154.667969c8.832031 0 16-7.167969 16-16s-7.167969-16-16-16h-138.667969c-8.832031 0-16 7.167969-16 16s7.167969 16 16 16h48c16.855469 0 30.976563 11.304687 35.585938 26.664062h-83.585938c-8.832031 0-16 7.167969-16 16s7.167969 16 16 16h78.550781c-6.761718 9.644531-17.921874 16-30.550781 16h-48c-7.015625 0-13.226562 4.589844-15.292969 11.285157-2.070312 6.699218.46875 13.976562 6.269532 17.941406l117.335937 80c2.769531 1.878906 5.886719 2.773437 9 2.773437 5.121094 0 10.15625-2.429687 13.25-6.976562 4.949219-7.316407 3.09375-17.277344-4.203125-22.25l-74.625-50.878907c29.121094-1.535156 53.25-21.269531 61.929688-47.894531h25.003906c8.832031 0 16-7.167969 16-16s-7.167969-16-16-16h-22.421875c-1.515625-9.683593-4.90625-18.730469-10.003906-26.664062zm0 0" data-original="#000000" class="active-path" data-old_color="#000000" fill="#FFFFFF"/><path d="m234.667969 0c-129.386719 0-234.667969 105.28125-234.667969 234.667969s105.28125 234.664062 234.667969 234.664062 234.664062-105.277343 234.664062-234.664062-105.277343-234.667969-234.664062-234.667969zm0 437.332031c-111.746094 0-202.667969-90.921875-202.667969-202.664062 0-111.746094 90.921875-202.667969 202.667969-202.667969 111.742187 0 202.664062 90.921875 202.664062 202.667969 0 111.742187-90.921875 202.664062-202.664062 202.664062zm0 0" data-original="#000000" class="active-path" data-old_color="#000000" fill="#FFFFFF"/></g> </svg>
